<svg width="426" height="50" viewBox="0 0 426 50" fill="none" xmlns="http://www.w3.org/2000/svg">
<path d="M7.992 3.736V30.76H20.952L20.136 37H0.119995V3.736H7.992Z" fill="#141414"/>
<path d="M45.5906 23.752C45.5906 24.808 45.5426 25.72 45.4466 26.488H29.6546C29.9106 28.632 30.5186 30.136 31.4786 31C32.4386 31.864 33.7666 32.296 35.4626 32.296C36.4866 32.296 37.4786 32.12 38.4386 31.768C39.3986 31.384 40.4386 30.808 41.5586 30.04L44.6786 34.264C41.7026 36.632 38.3906 37.816 34.7426 37.816C30.6146 37.816 27.4466 36.6 25.2386 34.168C23.0306 31.736 21.9266 28.472 21.9266 24.376C21.9266 21.784 22.3906 19.464 23.3186 17.416C24.2466 15.336 25.6066 13.704 27.3986 12.52C29.1906 11.304 31.3346 10.696 33.8306 10.696C37.5106 10.696 40.3906 11.848 42.4706 14.152C44.5506 16.456 45.5906 19.656 45.5906 23.752ZM38.1506 21.592C38.0866 17.688 36.7106 15.736 34.0226 15.736C32.7106 15.736 31.6866 16.216 30.9506 17.176C30.2466 18.136 29.8146 19.72 29.6546 21.928H38.1506V21.592Z" fill="#141414"/>
<path d="M60.891 10.696C64.795 10.696 67.851 11.896 70.059 14.296C72.267 16.664 73.371 19.992 73.371 24.28C73.371 27 72.859 29.384 71.835 31.432C70.843 33.448 69.403 35.016 67.515 36.136C65.659 37.256 63.451 37.816 60.891 37.816C57.019 37.816 53.963 36.632 51.723 34.264C49.515 31.864 48.411 28.52 48.411 24.232C48.411 21.512 48.907 19.144 49.899 17.128C50.923 15.08 52.363 13.496 54.219 12.376C56.107 11.256 58.331 10.696 60.891 10.696ZM60.891 16.264C59.355 16.264 58.203 16.92 57.435 18.232C56.667 19.512 56.283 21.512 56.283 24.232C56.283 27.016 56.651 29.048 57.387 30.328C58.155 31.608 59.323 32.248 60.891 32.248C62.427 32.248 63.579 31.608 64.347 30.328C65.115 29.016 65.499 27 65.499 24.28C65.499 21.496 65.115 19.464 64.347 18.184C63.611 16.904 62.459 16.264 60.891 16.264Z" fill="#141414"/>
<path d="M92.8102 10.696C95.0182 10.696 96.7462 11.368 97.9942 12.712C99.2422 14.056 99.8662 15.944 99.8662 18.376V37H92.2822V19.672C92.2822 18.392 92.0742 17.512 91.6582 17.032C91.2742 16.52 90.6822 16.264 89.8822 16.264C88.3462 16.264 86.8742 17.368 85.4662 19.576V37H77.8822V11.512H84.5062L85.0342 14.536C86.1222 13.256 87.2902 12.296 88.5382 11.656C89.8182 11.016 91.2422 10.696 92.8102 10.696Z" fill="#141414"/>
<path d="M125.841 29.608C125.841 30.568 125.969 31.272 126.225 31.72C126.513 32.168 126.961 32.504 127.569 32.728L125.985 37.672C124.417 37.544 123.137 37.208 122.145 36.664C121.153 36.088 120.385 35.192 119.841 33.976C118.177 36.536 115.617 37.816 112.161 37.816C109.633 37.816 107.617 37.08 106.113 35.608C104.609 34.136 103.857 32.216 103.857 29.848C103.857 27.064 104.881 24.936 106.929 23.464C108.977 21.992 111.937 21.256 115.809 21.256H118.401V20.152C118.401 18.648 118.081 17.624 117.441 17.08C116.801 16.504 115.681 16.216 114.081 16.216C113.249 16.216 112.241 16.344 111.057 16.6C109.873 16.824 108.657 17.144 107.409 17.56L105.681 12.568C107.281 11.96 108.913 11.496 110.577 11.176C112.273 10.856 113.841 10.696 115.281 10.696C118.929 10.696 121.601 11.448 123.297 12.952C124.993 14.456 125.841 16.712 125.841 19.72V29.608ZM114.369 32.392C116.097 32.392 117.441 31.576 118.401 29.944V25.432H116.529C114.801 25.432 113.505 25.736 112.641 26.344C111.809 26.952 111.393 27.896 111.393 29.176C111.393 30.2 111.649 31 112.161 31.576C112.705 32.12 113.441 32.392 114.369 32.392Z" fill="#141414"/>
<path d="M145.706 10.792C146.634 10.792 147.482 10.904 148.25 11.128L147.05 18.472C146.09 18.248 145.322 18.136 144.746 18.136C143.242 18.136 142.09 18.664 141.29 19.72C140.522 20.744 139.914 22.296 139.466 24.376V37H131.882V11.512H138.506L139.13 16.456C139.706 14.696 140.57 13.32 141.722 12.328C142.906 11.304 144.234 10.792 145.706 10.792Z" fill="#141414"/>
<path d="M172.543 1.38399V37H165.823L165.439 34.024C163.647 36.552 161.231 37.816 158.191 37.816C155.023 37.816 152.607 36.6 150.943 34.168C149.311 31.736 148.495 28.408 148.495 24.184C148.495 21.592 148.927 19.272 149.791 17.224C150.655 15.176 151.871 13.576 153.439 12.424C155.039 11.272 156.863 10.696 158.911 10.696C161.343 10.696 163.359 11.496 164.959 13.096V0.567993L172.543 1.38399ZM160.543 32.248C162.303 32.248 163.775 31.288 164.959 29.368V18.376C164.351 17.64 163.727 17.096 163.087 16.744C162.479 16.392 161.775 16.216 160.975 16.216C159.567 16.216 158.447 16.872 157.615 18.184C156.783 19.496 156.367 21.512 156.367 24.232C156.367 27.208 156.719 29.288 157.423 30.472C158.159 31.656 159.199 32.248 160.543 32.248Z" fill="#141414"/>
<path d="M189.516 10.696C193.42 10.696 196.476 11.896 198.684 14.296C200.892 16.664 201.996 19.992 201.996 24.28C201.996 27 201.484 29.384 200.46 31.432C199.468 33.448 198.028 35.016 196.14 36.136C194.284 37.256 192.076 37.816 189.516 37.816C185.644 37.816 182.588 36.632 180.348 34.264C178.14 31.864 177.036 28.52 177.036 24.232C177.036 21.512 177.532 19.144 178.524 17.128C179.548 15.08 180.988 13.496 182.844 12.376C184.732 11.256 186.956 10.696 189.516 10.696ZM189.516 16.264C187.98 16.264 186.828 16.92 186.06 18.232C185.292 19.512 184.908 21.512 184.908 24.232C184.908 27.016 185.276 29.048 186.012 30.328C186.78 31.608 187.948 32.248 189.516 32.248C191.052 32.248 192.204 31.608 192.972 30.328C193.74 29.016 194.124 27 194.124 24.28C194.124 21.496 193.74 19.464 192.972 18.184C192.236 16.904 191.084 16.264 189.516 16.264Z" fill="#141414"/>
<path d="M228.986 24.28H225.914V37H218.042V3.736H228.938C233.482 3.736 236.89 4.568 239.162 6.23199C241.466 7.89599 242.618 10.44 242.618 13.864C242.618 16.008 242.106 17.8 241.082 19.24C240.058 20.648 238.442 21.848 236.234 22.84L244.682 37H235.802L228.986 24.28ZM225.914 18.856H229.226C230.986 18.856 232.298 18.456 233.162 17.656C234.058 16.856 234.506 15.592 234.506 13.864C234.506 12.264 234.026 11.096 233.066 10.36C232.138 9.624 230.698 9.256 228.746 9.256H225.914V18.856Z" fill="#141414"/>
<path d="M269.044 23.752C269.044 24.808 268.996 25.72 268.9 26.488H253.108C253.364 28.632 253.972 30.136 254.932 31C255.892 31.864 257.22 32.296 258.916 32.296C259.94 32.296 260.932 32.12 261.892 31.768C262.852 31.384 263.892 30.808 265.012 30.04L268.132 34.264C265.156 36.632 261.844 37.816 258.196 37.816C254.068 37.816 250.9 36.6 248.692 34.168C246.484 31.736 245.38 28.472 245.38 24.376C245.38 21.784 245.844 19.464 246.772 17.416C247.7 15.336 249.06 13.704 250.852 12.52C252.644 11.304 254.788 10.696 257.284 10.696C260.964 10.696 263.844 11.848 265.924 14.152C268.004 16.456 269.044 19.656 269.044 23.752ZM261.604 21.592C261.54 17.688 260.164 15.736 257.476 15.736C256.164 15.736 255.14 16.216 254.404 17.176C253.7 18.136 253.268 19.72 253.108 21.928H261.604V21.592Z" fill="#141414"/>
<path d="M287.752 10.696C290.792 10.696 293.128 11.896 294.76 14.296C296.392 16.664 297.208 19.992 297.208 24.28C297.208 26.904 296.792 29.24 295.96 31.288C295.16 33.336 293.992 34.936 292.456 36.088C290.952 37.24 289.16 37.816 287.08 37.816C285.704 37.816 284.44 37.528 283.288 36.952C282.168 36.376 281.208 35.576 280.408 34.552L280.024 37H273.304V1.38399L280.888 0.567993V14.104C281.656 13.048 282.632 12.216 283.816 11.608C285.032 11 286.344 10.696 287.752 10.696ZM284.872 32.296C287.848 32.296 289.336 29.624 289.336 24.28C289.336 21.24 288.984 19.144 288.28 17.992C287.576 16.84 286.552 16.264 285.208 16.264C283.512 16.264 282.072 17.256 280.888 19.24V29.848C281.368 30.616 281.944 31.224 282.616 31.672C283.32 32.088 284.072 32.296 284.872 32.296Z" fill="#141414"/>
<path d="M312.985 10.696C316.889 10.696 319.945 11.896 322.153 14.296C324.361 16.664 325.465 19.992 325.465 24.28C325.465 27 324.953 29.384 323.929 31.432C322.937 33.448 321.497 35.016 319.609 36.136C317.753 37.256 315.545 37.816 312.985 37.816C309.113 37.816 306.057 36.632 303.817 34.264C301.609 31.864 300.505 28.52 300.505 24.232C300.505 21.512 301.001 19.144 301.993 17.128C303.017 15.08 304.457 13.496 306.313 12.376C308.201 11.256 310.425 10.696 312.985 10.696ZM312.985 16.264C311.449 16.264 310.297 16.92 309.529 18.232C308.761 19.512 308.377 21.512 308.377 24.232C308.377 27.016 308.745 29.048 309.481 30.328C310.249 31.608 311.417 32.248 312.985 32.248C314.521 32.248 315.673 31.608 316.441 30.328C317.209 29.016 317.593 27 317.593 24.28C317.593 21.496 317.209 19.464 316.441 18.184C315.705 16.904 314.553 16.264 312.985 16.264Z" fill="#141414"/>
<path d="M351.48 37H344.904L344.568 33.784C342.712 36.472 340.136 37.816 336.84 37.816C334.504 37.816 332.728 37.112 331.512 35.704C330.328 34.296 329.736 32.328 329.736 29.8V11.512H337.32V28.84C337.32 30.088 337.512 30.968 337.896 31.48C338.312 31.96 338.936 32.2 339.768 32.2C341.368 32.2 342.744 31.208 343.896 29.224V11.512H351.48V37Z" fill="#141414"/>
<path d="M377.221 34.792C375.045 36.52 372.629 37.512 369.973 37.768V39.304C371.669 39.496 372.917 39.992 373.717 40.792C374.549 41.624 374.965 42.712 374.965 44.056C374.965 45.688 374.309 47.016 372.997 48.04C371.717 49.064 369.989 49.576 367.813 49.576C366.725 49.576 365.717 49.432 364.789 49.144C363.861 48.888 363.077 48.552 362.437 48.136L364.165 44.632C365.253 45.176 366.277 45.448 367.237 45.448C368.741 45.448 369.493 44.968 369.493 44.008C369.493 43.432 369.141 43.016 368.437 42.76C367.733 42.504 366.613 42.376 365.077 42.376L365.653 37.528C362.645 36.92 360.277 35.464 358.549 33.16C356.853 30.856 356.005 27.96 356.005 24.472C356.005 21.784 356.517 19.4 357.541 17.32C358.565 15.24 360.021 13.624 361.909 12.472C363.797 11.288 365.989 10.696 368.485 10.696C370.245 10.696 371.829 10.952 373.237 11.464C374.645 11.976 375.973 12.76 377.221 13.816L373.957 18.328C372.357 17.112 370.741 16.504 369.109 16.504C367.413 16.504 366.133 17.128 365.269 18.376C364.405 19.624 363.973 21.64 363.973 24.424C363.973 27.112 364.405 29.016 365.269 30.136C366.133 31.256 367.381 31.816 369.013 31.816C369.877 31.816 370.661 31.688 371.365 31.432C372.069 31.144 372.917 30.696 373.909 30.088L377.221 34.792Z" fill="#141414"/>
<path d="M400.201 29.608C400.201 30.568 400.329 31.272 400.585 31.72C400.873 32.168 401.321 32.504 401.929 32.728L400.345 37.672C398.777 37.544 397.497 37.208 396.505 36.664C395.513 36.088 394.745 35.192 394.201 33.976C392.537 36.536 389.977 37.816 386.521 37.816C383.993 37.816 381.977 37.08 380.473 35.608C378.969 34.136 378.217 32.216 378.217 29.848C378.217 27.064 379.241 24.936 381.289 23.464C383.337 21.992 386.297 21.256 390.169 21.256H392.761V20.152C392.761 18.648 392.441 17.624 391.801 17.08C391.161 16.504 390.041 16.216 388.441 16.216C387.609 16.216 386.601 16.344 385.417 16.6C384.233 16.824 383.017 17.144 381.769 17.56L380.041 12.568C381.641 11.96 383.273 11.496 384.937 11.176C386.633 10.856 388.201 10.696 389.641 10.696C393.289 10.696 395.961 11.448 397.657 12.952C399.353 14.456 400.201 16.712 400.201 19.72V29.608ZM388.729 32.392C390.457 32.392 391.801 31.576 392.761 29.944V25.432H390.889C389.161 25.432 387.865 25.736 387.001 26.344C386.169 26.952 385.753 27.896 385.753 29.176C385.753 30.2 386.009 31 386.521 31.576C387.065 32.12 387.801 32.392 388.729 32.392Z" fill="#141414"/>
<path d="M414.749 10.696C416.573 10.696 418.285 10.968 419.885 11.512C421.485 12.056 422.893 12.824 424.109 13.816L421.325 18.088C419.245 16.776 417.149 16.12 415.037 16.12C414.045 16.12 413.277 16.296 412.733 16.648C412.221 16.968 411.965 17.432 411.965 18.04C411.965 18.52 412.077 18.92 412.301 19.24C412.557 19.528 413.053 19.832 413.789 20.152C414.525 20.472 415.661 20.856 417.197 21.304C419.853 22.072 421.821 23.08 423.101 24.328C424.413 25.544 425.069 27.24 425.069 29.416C425.069 31.144 424.573 32.648 423.581 33.928C422.589 35.176 421.229 36.136 419.501 36.808C417.773 37.48 415.853 37.816 413.741 37.816C411.597 37.816 409.597 37.48 407.741 36.808C405.917 36.136 404.365 35.208 403.085 34.024L406.781 29.896C408.925 31.56 411.181 32.392 413.549 32.392C414.701 32.392 415.597 32.184 416.237 31.768C416.909 31.352 417.245 30.76 417.245 29.992C417.245 29.384 417.117 28.904 416.861 28.552C416.605 28.2 416.109 27.88 415.373 27.592C414.637 27.272 413.469 26.888 411.869 26.44C409.341 25.704 407.453 24.68 406.205 23.368C404.957 22.056 404.333 20.424 404.333 18.472C404.333 17 404.749 15.688 405.581 14.536C406.445 13.352 407.661 12.424 409.229 11.752C410.829 11.048 412.669 10.696 414.749 10.696Z" fill="#141414"/>
</svg>
